<svg xmlns="http://www.w3.org/2000/svg" width="73" height="63" xml:space="preserve"><path fill="#33B9E8" d="m63.912 34.909-.556-.862a28.095 28.095 0 0 1-4.184 11.924 59.028 59.028 0 0 0-8.728-1.935 49.518 49.518 0 0 0 1.565-9.296l-2.167 1.094a48.206 48.206 0 0 1-1.43 7.924 105.045 105.045 0 0 0-12.127-.786v-.288l-4.779 2.415c.902-.03 1.806-.05 2.708-.056v13.762c-4.851-.636-9.063-5.689-11.518-13.042a106.17 106.17 0 0 1 2.638-.276l.206-2.092a102.55 102.55 0 0 0-3.454.361 48.297 48.297 0 0 1-1.01-4.688l-1.966.696c.253 1.436.566 2.861.944 4.272a58.818 58.818 0 0 0-8.727 1.935 28.23 28.23 0 0 1-1.588-2.886l-2.634.933c4.947 10.586 15.686 17.925 28.144 17.925 17.133 0 31.025-13.875 31.054-31.003l-2.391 3.969zM12.555 47.763a58.705 58.705 0 0 1 8.108-1.727c1.777 5.395 4.472 9.719 7.701 12.293a28.357 28.357 0 0 1-15.809-10.566zm23.732-2.721c3.85.025 7.693.268 11.517.723-2.454 7.352-6.667 12.403-11.517 13.039V45.042zm5.852 13.288c3.229-2.574 5.923-6.896 7.7-12.291 2.74.384 5.45.96 8.108 1.725A28.36 28.36 0 0 1 42.139 58.33z"/><path fill="#005A81" d="m20.82 26.955-.481-.102-.493 1.11s.065-.063-.069.321a4.307 4.307 0 0 0-.178.841c.792.167 1.53-.142 1.53-.142s.269-1.028.282-1.334c.014-.308-.591-.694-.591-.694zm-7.944-9.537-.391.382s.376.908.384 1.116c.009.208.01.931.01.931l.206.252.839-.031c.272-.095.594-.389.773-.507.18-.117.091-.652-.162-.809-.254-.158-.667-.4-.806-.481s-.853-.853-.853-.853zm14.915 7.316c-.112-.024-1.241.553-1.448.431-.207-.121-1.04-.027-1.279.001-.237.027-.415-.05-.427.375-.014.424 1.398.894 1.443.681.046-.211.615-.52.738-.376.127.143.783.697.783.697s.102.076.244.153l.708-.396c-.203-.316-.284-.716-.284-.716s-.367-.826-.478-.85zM41.642.672C24.981-2.852 8.561 7.835 5.036 24.496a30.679 30.679 0 0 0 .48 14.685l1.43-.8a29.168 29.168 0 0 1-.85-4.643c.82.573 1.725 1.479 1.725 1.479s.423.45.651.343c.229-.106.511.031.586.163.076.132.408.515.408.515s.425.191.734-.053c.311-.246.778.475.446-.889-.331-1.362-.403-1.273-.675-1.691a22.122 22.122 0 0 1-.877-1.479c-.146-.291-.483-1.24-.483-1.24s-.076-.273.268.057c.344.332.578.691.802 1.101s.224.409.479.671c.255.26.922.607 1.151.707.229.102.595.075.626-.072.032-.15-.233-.361.104-.496.339-.133.031-.146.339-.133.308.012-.028-.111.9.137.617.166 1.698.474 2.36.664l3.678-2.057c-.229-.665-.432-1.313-.462-1.512-.064-.428-.189-.816-.246-1.035-.057-.218.006-.514-.338-.846-.343-.332-1.486-1.038-1.486-1.038s-.848.337-1.052.087c-.205-.25-.209.008-.433-.401-.224-.41-.29-.578-.832-.952-.542-.372-1.419-.868-1.864-.962s-.516-.006-.799-.377c-.285-.37-.224-.41-.479-.67-.255-.261-.58-.433-.58-.433s-.808.399-.889.536c-.081.138-.18.117-.417.014-.238-.101-.414-.241-.553-.322l-.137-.081s-.71-.473-1.579-.918a29.15 29.15 0 0 1 9.469-14.272c.616.512 1.263 1.071 1.559 1.062.417-.017 1.389.034 1.389.034s.612.284.258.984c-.355.7-1.004 1.081-1.212 1.086-.208.008-.978.053-1.285.245-.308.195-.975.415-.61.649.364.23.683.195 1.237.261.556.065 1.738-.15 1.77-.299s.615-.956.615-.956l.644.137s-.07.089-.094.445c-.023.358.845 1.378.465 1.473-.384.095-.535.322-.238.384l.297.063s1.693-.676.396.084c-1.298.759-1.009.613-1.298.759-.29.145-.217.779-.64 1.311-.422.53-.874.953-.874.953s-.193 1.406.288 1.817c.481.413.77 1.249 1.069 1.544.299.296.519.238 1.595 1.14 1.075.899 1.19 1.335 1.424 1.696.234.36 1.975-.047 1.975-.047l-.227-1.134s-.188-.092.151-.229c.339-.134 1.342-.231 1.14-.741-.203-.508-2.081-1.164-2.081-1.164s-1.398.016-1.681-.356c-.285-.369-.713-1.029-.406-1.014.308.012 2.316.541 2.4.143.084-.396.521-1.491.521-1.491l.568 1.463s.795.479 1.091.749c.296.27.442 1.282.451 1.491.009.209-.178.841-.178.841s.258.469-.082.5c-.341.032-.888.176-.888.176s.354.28.481.41c.128.131 1.03.994 1.196 1.185.167.19.599.591.599.591l.815.792s-.025.346-.001.596l2.991-1.672c.013-.014.024-.031.037-.037.17-.066.6-.39.879-.486s-1.025-.528-1.025-.528.673-.736 1.011-.87c.339-.135.81.325 1.062.12.249-.205.146-.692.127-.852-.018-.159-.228-.15-.628-.451-.401-.3.22-.307.579-.542.361-.233.532-.559.349-.909-.185-.348-.891-.188-.786-.681.104-.495.311-.246.459-.215.148.032 1.472-2.426 1.472-2.426s.661-.326.888-.176c.227.152.658 1.536.676 1.694.018.159-.907 2.082-1.275 2.676-.371.594.455.459.455.459l.397.609 3.228-1.804L36.7 30.348c.039.053.088.126.162.254.14.24.313.422.488.576l7.636-4.372c.349-.579.756-1.044.756-1.044s.142-.177.446.094c.07.063.104.128.129.189l9.055-5.185-.795-1.529a7.327 7.327 0 0 0-.896-1.04c-.305-.271-.422-.451-1.113-.597-.693-.147-1.764-.218-1.764-.218s.174.399-.336-.124c-.51-.522-.57-.482-.775-.733-.205-.25-.284-.37-1.077-1.261-.792-.891-1.026-1.252-1.537-1.774-.51-.52-.863-.8-.863-.8s-.406-.035-.438.113l-.126.594c-.031.148-.12.077-.183.373-.063.298-.499 1.136-.673.736-.175-.397-.214-.457-.249-.775-.036-.318-.563-1.98-.798-2.339-.232-.36-.212-.46-.504-1.039-.292-.576-.567-.739-.765-.781-.198-.042-.41.223-.688.319-.278.097-.798.607-.73.776.064.171.316.224-.127.594-.441.373-1.611 1.261-1.771 1.279-.159.018.517-.976.548-1.124s.693-1.56.938-2.231c.244-.672.772-1.697 1.144-1.981.368-.284 1.405-.788 2.206-1.393.801-.606 1.873-.794 2.181-.78.307.014.463.253 2.034-.087.231-.049.427-.082.616-.11A29.362 29.362 0 0 1 60.51 16.077l1.819-.001C58.148 8.45 50.802 2.61 41.642.672zm-8.313 15.594c-.081.138-.063.296-.063.296l.175.399s-.176.583-.156.743c.017.157-.918-.557-.918-.557l-.057-.219c-.057-.219-.426-.917-.525-.937-.099-.021.127-.6.127-.6s.697-.363 1.028-.708c.331-.344.733-.155.733-.155l.412.604c.001.001-.675.995-.756 1.134zm5.908-.147c.245-.035.619-.063.941-.227.521-.263 1.671-.566 2.179-.768.509-.204 1.332-.185 1.43-.164.1.021-.156.743-.156.743s-1.264.354-1.473.608c-.209.254-.697.121-1.136.237-.437.113-1.394.479-2.196.362l.146-.691c.012-.057.114-.079.265-.1zM26.056 26.887l.044.708.102.021 1.175-.657c-.13-.12-.731-.562-.8-.465-.071.1-.521.393-.521.393zm27.953-10.805h1.006l-.036-.019c-.281-.138-1.717-1.05-1.717-1.05l.747 1.069z"/><path fill="#33B9E8" d="m0 44.482 36.758-20.548-3.942 12.073L57.947 21.62l-1.874-3.603 15.768-.001-7.984 13.234-2.265-3.521-34.266 17.313 1.038-10.611z"/></svg>